<?xml version="1.0" encoding="UTF-8" standalone="no" ?>
<!DOCTYPE svg PUBLIC "-//W3C//DTD SVG 1.1//EN" "http://www.w3.org/Graphics/SVG/1.1/DTD/svg11.dtd">
<svg xmlns="http://www.w3.org/2000/svg" xmlns:xlink="http://www.w3.org/1999/xlink" version="1.1" width="400" height="400" viewBox="0 0 400 400" xml:space="preserve">
<desc>Created with Fabric.js 3.6.2</desc>
<defs>
</defs>
<g transform="matrix(4.17 0 0 4.17 200 200)" id="Layer_1"  >
<path style="stroke: none; stroke-width: 1; stroke-dasharray: none; stroke-linecap: butt; stroke-dashoffset: 0; stroke-linejoin: miter; stroke-miterlimit: 4; fill: rgb(255,202,40); fill-rule: nonzero; opacity: 1;"  transform=" translate(-24, -24)" d="M 44 24 c 0 11 -9 20 -20 20 S 4 35 4 24 S 13 4 24 4 S 44 13 44 24 z" stroke-linecap="round" />
</g>
<g transform="matrix(4.17 0 0 4.17 170.83 195.83)" id="Layer_1"  >
<path style="stroke: none; stroke-width: 1; stroke-dasharray: none; stroke-linecap: butt; stroke-dashoffset: 0; stroke-linejoin: miter; stroke-miterlimit: 4; fill: rgb(109,76,65); fill-rule: nonzero; opacity: 1;"  transform=" translate(-17, -23)" d="M 21 23 c 0 2.2 -1.8 4 -4 4 s -4 -1.8 -4 -4 s 1.8 -4 4 -4 S 21 20.8 21 23 z" stroke-linecap="round" />
</g>
<g transform="matrix(4.17 0 0 4.17 164.58 189.58)" id="Layer_1"  >
<path style="stroke: none; stroke-width: 1; stroke-dasharray: none; stroke-linecap: butt; stroke-dashoffset: 0; stroke-linejoin: miter; stroke-miterlimit: 4; fill: rgb(255,255,255); fill-rule: nonzero; opacity: 1;"  transform=" translate(-15.5, -21.5)" d="M 17 21.5 c 0 0.8 -0.7 1.5 -1.5 1.5 S 14 22.3 14 21.5 s 0.7 -1.5 1.5 -1.5 C 16.3 20 17 20.7 17 21.5 z" stroke-linecap="round" />
</g>
<g transform="matrix(4.17 0 0 4.17 229.17 195.83)" id="Layer_1"  >
<path style="stroke: none; stroke-width: 1; stroke-dasharray: none; stroke-linecap: butt; stroke-dashoffset: 0; stroke-linejoin: miter; stroke-miterlimit: 4; fill: rgb(109,76,65); fill-rule: nonzero; opacity: 1;"  transform=" translate(-31, -23)" d="M 35 23 c 0 2.2 -1.8 4 -4 4 s -4 -1.8 -4 -4 s 1.8 -4 4 -4 S 35 20.8 35 23 z" stroke-linecap="round" />
</g>
<g transform="matrix(4.17 0 0 4.17 222.92 189.58)" id="Layer_1"  >
<path style="stroke: none; stroke-width: 1; stroke-dasharray: none; stroke-linecap: butt; stroke-dashoffset: 0; stroke-linejoin: miter; stroke-miterlimit: 4; fill: rgb(255,255,255); fill-rule: nonzero; opacity: 1;"  transform=" translate(-29.5, -21.5)" d="M 31 21.5 c 0 0.8 -0.7 1.5 -1.5 1.5 S 28 22.3 28 21.5 s 0.7 -1.5 1.5 -1.5 S 31 20.7 31 21.5 z" stroke-linecap="round" />
</g>
<g transform="matrix(4.17 0 0 4.17 200 243.75)" id="Layer_1"  >
<path style="stroke: none; stroke-width: 1; stroke-dasharray: none; stroke-linecap: butt; stroke-dashoffset: 0; stroke-linejoin: miter; stroke-miterlimit: 4; fill: rgb(183,108,9); fill-rule: nonzero; opacity: 1;"  transform=" translate(-24, -34.5)" d="M 24 37 c -2.8 0 -5 -2.2 -5 -5 h 2 c 0 1.7 1.3 3 3 3 s 3 -1.3 3 -3 h 2 C 29 34.8 26.8 37 24 37 z" stroke-linecap="round" />
</g>
</svg>