<?xml version="1.0" encoding="UTF-8" standalone="no" ?>
<!DOCTYPE svg PUBLIC "-//W3C//DTD SVG 1.1//EN" "http://www.w3.org/Graphics/SVG/1.1/DTD/svg11.dtd">
<svg xmlns="http://www.w3.org/2000/svg" xmlns:xlink="http://www.w3.org/1999/xlink" version="1.1" width="400" height="400" viewBox="0 0 400 400" xml:space="preserve">
<desc>Created with Fabric.js 3.6.2</desc>
<defs>
</defs>
<g transform="matrix(4.17 0 0 4.17 200 200)" id="Layer_1"  >
<path style="stroke: none; stroke-width: 1; stroke-dasharray: none; stroke-linecap: butt; stroke-dashoffset: 0; stroke-linejoin: miter; stroke-miterlimit: 4; fill: rgb(255,202,40); fill-rule: nonzero; opacity: 1;"  transform=" translate(-24, -24)" d="M 44 24 c 0 11 -9 20 -20 20 S 4 35 4 24 S 13 4 24 4 S 44 13 44 24 z" stroke-linecap="round" />
</g>
<g transform="matrix(4.17 0 0 4.17 199.99 227.1)" id="Layer_1"  >
<path style="stroke: none; stroke-width: 1; stroke-dasharray: none; stroke-linecap: butt; stroke-dashoffset: 0; stroke-linejoin: miter; stroke-miterlimit: 4; fill: rgb(93,64,55); fill-rule: nonzero; opacity: 1;"  transform=" translate(-24, -30.5)" d="M 33 27 c 0 0.86 -0.27 4.11 -1.69 7.01 H 16.65 c -1.42 -2.9 -1.7 -6.15 -1.65 -7.01 H 33 z" stroke-linecap="round" />
</g>
<g transform="matrix(4.17 0 0 4.17 170.83 182.5)" id="Layer_1"  >
<path style="stroke: none; stroke-width: 1; stroke-dasharray: none; stroke-linecap: butt; stroke-dashoffset: 0; stroke-linejoin: miter; stroke-miterlimit: 4; fill: rgb(183,108,9); fill-rule: nonzero; opacity: 1;"  transform=" translate(-17, -19.8)" d="M 13.8 21.6 l -1.6 -1.2 C 12.3 20.3 14 18 17 18 s 4.7 2.3 4.8 2.4 l -1.6 1.2 c 0 0 -1.3 -1.6 -3.2 -1.6 S 13.8 21.6 13.8 21.6 z" stroke-linecap="round" />
</g>
<g transform="matrix(4.17 0 0 4.17 229.17 182.5)" id="Layer_1"  >
<path style="stroke: none; stroke-width: 1; stroke-dasharray: none; stroke-linecap: butt; stroke-dashoffset: 0; stroke-linejoin: miter; stroke-miterlimit: 4; fill: rgb(183,108,9); fill-rule: nonzero; opacity: 1;"  transform=" translate(-31, -19.8)" d="M 27.8 21.6 l -1.6 -1.2 C 26.3 20.3 28 18 31 18 s 4.7 2.3 4.8 2.4 l -1.6 1.2 c 0 0 -1.3 -1.6 -3.2 -1.6 S 27.8 21.6 27.8 21.6 z" stroke-linecap="round" />
</g>
<g transform="matrix(4.17 0 0 4.17 199.92 247.92)" id="Layer_1"  >
<path style="stroke: none; stroke-width: 1; stroke-dasharray: none; stroke-linecap: butt; stroke-dashoffset: 0; stroke-linejoin: miter; stroke-miterlimit: 4; fill: rgb(198,40,40); fill-rule: nonzero; opacity: 1;"  transform=" translate(-23.98, -35.5)" d="M 31.31 34.01 C 30.04 36.65 27.81 39 24 39 s -6.05 -2.35 -7.35 -4.99 c 0 0 1.975 -2.01 7.35 -2.01 S 31.31 34.01 31.31 34.01 z" stroke-linecap="round" />
</g>
</svg>